HIERARCHY
ROOT Hips
{
 OFFSET 0.000000 0.000000 0.000000
 CHANNELS 6 Xposition Yposition Zposition Yrotation Xrotation Zrotation
 JOINT Chest
 {
  OFFSET 0.000000 9.588913 -0.003946
  CHANNELS 3 Yrotation Xrotation Zrotation
  JOINT Chest2
  {
   OFFSET 0.000000 9.541882 0.008053
   CHANNELS 3 Yrotation Xrotation Zrotation
   JOINT Chest3
   {
    OFFSET 0.000000 9.501360 0.000000
    CHANNELS 3 Yrotation Xrotation Zrotation
    JOINT Chest4
    {
     OFFSET 0.000000 9.491660 0.000000
     CHANNELS 3 Yrotation Xrotation Zrotation
     JOINT Neck
     {
      OFFSET 0.000000 14.331917 0.000000
      CHANNELS 3 Yrotation Xrotation Zrotation
      JOINT Head
      {
       OFFSET 0.000000 8.884799 0.017034
       CHANNELS 3 Yrotation Xrotation Zrotation
       End Site
       {
        OFFSET 0.000000 16.896195 0.008993
       }
      }
     }
     JOINT RightCollar
     {
      OFFSET -2.923010 9.499495 0.000000
      CHANNELS 3 Yrotation Xrotation Zrotation
      JOINT RightShoulder
      {
       OFFSET -13.795216 0.000000 0.000000
       CHANNELS 3 Yrotation Xrotation Zrotation
       JOINT RightElbow
       {
        OFFSET -30.272209 0.000000 0.000000
        CHANNELS 3 Yrotation Xrotation Zrotation
        JOINT RightWrist
        {
         OFFSET -24.478199 0.000000 0.000000
         CHANNELS 3 Yrotation Xrotation Zrotation
         End Site
         {
          OFFSET -18.090752 0.000000 0.000000
         }
        }
       }
      }
     }
     JOINT LeftCollar
     {
      OFFSET 2.923010 9.499495 0.000000
      CHANNELS 3 Yrotation Xrotation Zrotation
      JOINT LeftShoulder
      {
       OFFSET 13.795216 0.000000 0.000000
       CHANNELS 3 Yrotation Xrotation Zrotation
       JOINT LeftElbow
       {
        OFFSET 30.272209 0.000000 0.000000
        CHANNELS 3 Yrotation Xrotation Zrotation
        JOINT LeftWrist
        {
         OFFSET 24.478199 0.000000 0.000000
         CHANNELS 3 Yrotation Xrotation Zrotation
         End Site
         {
          OFFSET 18.090752 0.000000 0.000000
         }
        }
       }
      }
     }
    }
   }
  }
 }
 JOINT RightHip
 {
  OFFSET -7.826875 0.019532 0.001973
  CHANNELS 3 Yrotation Xrotation Zrotation
  JOINT RightKnee
  {
   OFFSET 0.000000 -40.546152 -0.001885
   CHANNELS 3 Yrotation Xrotation Zrotation
   JOINT RightAnkle
   {
    OFFSET 0.000000 -39.417092 -0.003189
    CHANNELS 3 Yrotation Xrotation Zrotation
    JOINT RightToe
    {
     OFFSET 0.000000 -7.579396 17.243563
     CHANNELS 3 Yrotation Xrotation Zrotation
     End Site
     {
      OFFSET 0.000000 -1.500329 6.694466
     }
    }
   }
  }
 }
 JOINT LeftHip
 {
  OFFSET 7.826875 0.019532 0.001973
  CHANNELS 3 Yrotation Xrotation Zrotation
  JOINT LeftKnee
  {
   OFFSET 0.000000 -40.546152 -0.001885
   CHANNELS 3 Yrotation Xrotation Zrotation
   JOINT LeftAnkle
   {
    OFFSET 0.000000 -39.417092 -0.003189
    CHANNELS 3 Yrotation Xrotation Zrotation
    JOINT LeftToe
    {
     OFFSET 0.000000 -7.579396 17.243563
     CHANNELS 3 Yrotation Xrotation Zrotation
     End Site
     {
      OFFSET 0.000000 -1.500329 6.694466
     }
    }
   }
  }
 }
}
MOTION
Frames: 12
Frame Time: 0.008333
27.101646 87.871084 -50.211023 124.362474 -4.933193 -0.895521 -0.489175 1.801292 1.106236 -0.307394 1.029783 0.646222 -0.382442 1.287764 0.806946 -0.307394 1.029783 0.646222 -0.991368 35.165477 3.050134 -1.797861 15.072747 3.689726 2.696554 1.746660 0.654276 -6.153785 -1.173566 88.693292 2.706025 -11.494102 3.007890 4.158985 -8.725158 -4.594887 6.866155 -1.392698 -3.061802 4.639848 0.537054 -89.538022 -1.374326 6.176240 -3.445583 -6.820028 1.288888 6.998035 -21.609541 10.781193 -10.618673 5.033212 -3.235367 -0.923409 11.992606 -6.047842 5.778022 0.032975 -0.101353 0.012353 14.350383 11.674307 11.509483 13.079165 -0.770373 -0.416258 16.006626 -2.596071 -9.673148 0.014937 0.007582 0.003429
27.099350 87.872888 -50.222232 124.411400 -4.944593 -0.877981 -0.468784 1.813129 1.117101 -0.295067 1.035850 0.652139 -0.367005 1.295331 0.814373 -0.295068 1.035850 0.652139 -0.318583 35.170152 3.056935 -1.033508 15.058331 3.548223 2.702814 1.731897 0.649912 -6.142635 -1.158546 88.660262 2.700068 -11.459674 3.007620 4.140678 -8.699761 -4.583855 6.850977 -1.385908 -3.069428 4.640021 0.512886 -89.552642 -1.407100 6.160114 -3.481575 -6.824155 1.282579 7.003713 -21.619040 10.780547 -10.638172 5.046656 -3.203369 -0.925692 11.912361 -6.058796 5.779460 0.029618 -0.100620 0.012330 14.379425 11.659288 11.489672 13.055871 -0.741273 -0.395266 15.979420 -2.597220 -9.677116 0.014804 0.004645 0.001781
27.096505 87.874383 -50.232619 124.466238 -4.951901 -0.861284 -0.450312 1.826458 1.128359 -0.284298 1.042308 0.658258 -0.353514 1.303390 0.822047 -0.284298 1.042309 0.658258 0.324062 35.165950 3.064447 -0.304223 15.038314 3.414519 2.713769 1.709709 0.642478 -6.126267 -1.144299 88.624840 2.693101 -11.419254 3.008011 4.120068 -8.681379 -4.573273 6.831018 -1.384983 -3.079766 4.642266 0.490904 -89.562020 -1.433582 6.147257 -3.513467 -6.828161 1.279621 7.008145 -21.637415 10.775392 -10.656920 5.062437 -3.170608 -0.926765 11.832411 -6.070167 5.779167 0.026063 -0.099130 0.012879 14.399807 11.638021 11.465815 13.030439 -0.712300 -0.374777 15.970696 -2.597136 -9.679495 0.017143 0.004195 0.002557
27.093169 87.875611 -50.242490 124.523992 -4.955646 -0.844356 -0.431963 1.839618 1.138955 -0.273686 1.048974 0.663874 -0.340221 1.311706 0.829094 -0.273686 1.048974 0.663874 0.936762 35.154991 3.072725 0.390520 15.014913 3.288626 2.724017 1.682966 0.637792 -6.100290 -1.133720 88.583336 2.684516 -11.374872 3.012810 4.098780 -8.664477 -4.563130 6.806142 -1.389213 -3.090776 4.643828 0.471254 -89.564871 -1.451409 6.137910 -3.540641 -6.832748 1.277630 7.012365 -21.651705 10.765076 -10.678008 5.065789 -3.134818 -0.926509 11.778875 -6.084923 5.779106 0.024030 -0.097881 0.014131 14.409896 11.612480 11.440962 12.998248 -0.679633 -0.357152 15.971745 -2.599624 -9.683284 0.019239 0.004319 0.005725
27.089116 87.876631 -50.252010 124.588550 -4.954477 -0.825865 -0.415073 1.850617 1.147793 -0.262880 1.055654 0.668579 -0.326687 1.320040 0.835001 -0.262880 1.055654 0.668579 1.515425 35.139279 3.082732 1.046117 14.990176 3.172528 2.730434 1.653522 0.639549 -6.065456 -1.126227 88.533409 2.675347 -11.329422 3.021757 4.077391 -8.642912 -4.547296 6.775989 -1.396833 -3.100326 4.641426 0.453943 -89.566281 -1.459717 6.131887 -3.557856 -6.835309 1.278655 7.013253 -21.661437 10.750650 -10.696341 5.054697 -3.096082 -0.926523 11.725638 -6.101787 5.778994 0.021686 -0.095531 0.014681 14.404193 11.585953 11.419961 12.961675 -0.644210 -0.341836 15.941212 -2.606844 -9.694093 0.016726 0.000843 0.009261
27.084402 87.877529 -50.260840 124.653436 -4.947115 -0.806360 -0.397278 1.859248 1.155842 -0.250243 1.062018 0.672730 -0.310867 1.327976 0.840223 -0.250243 1.062019 0.672730 2.055832 35.119944 3.095233 1.657796 14.964891 3.067992 2.730059 1.619629 0.646910 -6.028172 -1.118027 88.478275 2.669941 -11.271665 3.029872 4.054187 -8.623064 -4.528222 6.743374 -1.406658 -3.109591 4.625767 0.438711 -89.568226 -1.460183 6.128451 -3.564671 -6.832926 1.277655 7.010950 -21.672269 10.730483 -10.713023 5.050011 -3.058743 -0.926812 11.666498 -6.118184 5.780140 0.019412 -0.092112 0.013712 14.396020 11.557920 11.403393 12.921076 -0.610593 -0.325664 15.872953 -2.616220 -9.711840 0.009547 -0.006414 0.011285
27.079807 87.878463 -50.268831 124.713110 -4.936787 -0.787477 -0.376667 1.867444 1.164164 -0.236062 1.067461 0.676908 -0.293118 1.334755 0.845484 -0.236062 1.067461 0.676908 2.562366 35.098625 3.111333 2.230443 14.940605 2.975296 2.726218 1.584430 0.654912 -5.995500 -1.107963 88.423809 2.670243 -11.192230 3.035497 4.028144 -8.608544 -4.514879 6.712339 -1.414905 -3.119151 4.597534 0.423661 -89.570166 -1.453346 6.129261 -3.563124 -6.824040 1.274356 7.011574 -21.682685 10.708407 -10.729003 5.056778 -3.025140 -0.925370 11.602416 -6.132067 5.782064 0.017084 -0.088371 0.011070 14.395051 11.524521 11.384187 12.883109 -0.577503 -0.309371 15.821093 -2.623000 -9.727889 0.004254 -0.011891 0.013526
27.075629 87.879567 -50.276391 124.792749 -4.926227 -0.768867 -0.365486 1.875896 1.172855 -0.228289 1.071989 0.681154 -0.283381 1.340404 0.850812 -0.228289 1.071989 0.681154 3.042329 35.076759 3.130784 2.772524 14.918746 2.892545 2.734092 1.554759 0.657000 -5.971481 -1.100364 88.371967 2.674094 -11.092301 3.041796 3.998756 -8.588101 -4.508702 6.694156 -1.418333 -3.129825 4.561396 0.408543 -89.572062 -1.440702 6.133186 -3.554441 -6.810459 1.277686 7.013655 -21.712962 10.688779 -10.749904 5.059783 -2.994680 -0.921183 11.551749 -6.145253 5.785138 0.015799 -0.086413 0.007657 14.375581 11.484921 11.358980 12.853475 -0.541937 -0.296086 15.797541 -2.626164 -9.738119 0.003030 -0.013814 0.017045
27.071809 87.880906 -50.283336 124.897107 -4.915114 -0.750105 -0.367050 1.884643 1.182782 -0.228515 1.076583 0.685822 -0.283642 1.346149 0.856644 -0.228516 1.076583 0.685822 3.496423 35.054674 3.152451 3.285137 14.899147 2.818257 2.756131 1.531355 0.651496 -5.953380 -1.099628 88.320049 2.680650 -10.976280 3.050044 3.969936 -8.561991 -4.508800 6.693611 -1.419429 -3.144460 4.518708 0.396183 -89.573330 -1.426630 6.135794 -3.539743 -6.792491 1.290361 7.012792 -21.767790 10.670256 -10.778030 5.054944 -2.966605 -0.915578 11.529962 -6.159257 5.789478 0.017042 -0.087024 0.005309 14.333230 11.441618 11.331550 12.827948 -0.505963 -0.286721 15.784532 -2.625490 -9.742951 0.003250 -0.014726 0.019588
27.068840 87.882550 -50.289022 125.001664 -4.904959 -0.732694 -0.372564 1.894563 1.194172 -0.230998 1.081996 0.691387 -0.286719 1.352924 0.863590 -0.230998 1.081996 0.691387 3.921071 35.033268 3.176332 3.764230 14.882436 2.753185 2.786214 1.513192 0.642022 -5.937002 -1.106128 88.268369 2.690906 -10.849263 3.057212 3.945337 -8.529499 -4.511189 6.707382 -1.419554 -3.164082 4.477945 0.387992 -89.572023 -1.412584 6.138597 -3.520128 -6.771152 1.304037 7.010550 -21.822558 10.654564 -10.801549 5.047396 -2.939328 -0.911673 11.501682 -6.171460 5.792553 0.018079 -0.087584 0.003741 14.294532 11.398638 11.306819 12.803383 -0.473273 -0.280368 15.781595 -2.619434 -9.743228 0.003545 -0.015932 0.020143
27.066839 87.884529 -50.293019 125.098962 -4.895999 -0.717685 -0.379085 1.905383 1.206199 -0.233554 1.088099 0.697754 -0.289883 1.360562 0.871538 -0.233554 1.088099 0.697754 4.314914 35.013748 3.202041 4.208340 14.869744 2.697169 2.821183 1.498355 0.630223 -5.918558 -1.117864 88.222031 2.704364 -10.720111 3.061044 3.922125 -8.490583 -4.511643 6.730283 -1.418193 -3.186651 4.445999 0.383862 -89.567516 -1.395949 6.142746 -3.496680 -6.750580 1.313483 7.009672 -21.871730 10.642749 -10.814800 5.041611 -2.913344 -0.911207 11.447899 -6.179692 5.793923 0.017272 -0.087075 0.002140 14.270298 11.357817 11.289218 12.777268 -0.446154 -0.276344 15.775763 -2.607671 -9.742888 0.002470 -0.018836 0.019939
27.065214 87.886813 -50.295042 125.193191 -4.885133 -0.704415 -0.384490 1.915732 1.218413 -0.235132 1.094337 0.704429 -0.291824 1.368366 0.879874 -0.235132 1.094337 0.704429 4.679681 34.995966 3.229358 4.619439 14.860408 2.649537 2.857510 1.481025 0.616823 -5.903037 -1.131121 88.181849 2.720582 -10.603545 3.063243 3.895475 -8.446207 -4.513098 6.744929 -1.418417 -3.207941 4.427917 0.385180 -89.562128 -1.375508 6.144690 -3.469742 -6.731524 1.324543 7.010104 -21.922155 10.629639 -10.823702 5.041295 -2.889055 -0.913134 11.392179 -6.186314 5.795125 0.016941 -0.086304 0.001097 14.257966 11.315905 11.277566 12.745571 -0.424990 -0.272670 15.759850 -2.589761 -9.745409 -0.000047 -0.024042 0.020511
